<svg width="182" height="48" viewBox="0 0 182 48" fill="none" xmlns="http://www.w3.org/2000/svg">
<path d="M28.1245 19.316C28.1245 20.636 27.9045 22.1467 27.4645 23.848C27.0245 25.52 26.3938 27.236 25.5725 28.996C24.7805 30.7267 23.8272 32.428 22.7125 34.1C21.6272 35.772 20.4245 37.2533 19.1045 38.544C17.8138 39.864 16.4205 40.92 14.9245 41.712C13.4285 42.504 11.9032 42.9 10.3485 42.9C9.0285 42.9 7.7965 42.6213 6.6525 42.064C5.5085 41.536 4.51117 40.8173 3.6605 39.908C2.80983 38.9987 2.14983 37.9573 1.6805 36.784C1.18183 35.6107 0.9325 34.3933 0.9325 33.132C0.9325 32.3693 1.03517 31.7533 1.2405 31.284C1.4165 30.7853 1.65117 30.404 1.9445 30.14C2.26717 29.8467 2.6045 29.656 2.9565 29.568C3.33783 29.4507 3.7045 29.392 4.0565 29.392C4.4965 29.392 4.9365 29.48 5.3765 29.656C5.8165 29.8027 6.2125 30.0373 6.5645 30.36C6.94583 30.6533 7.23917 31.0053 7.4445 31.416C7.67917 31.8267 7.7965 32.2813 7.7965 32.78C7.7965 33.22 7.78183 33.6453 7.7525 34.056C7.72317 34.496 7.7085 34.9067 7.7085 35.288C7.7085 35.904 7.7965 36.4173 7.9725 36.828C8.1485 37.2387 8.5445 37.444 9.1605 37.444C10.0405 37.444 10.8912 37.1947 11.7125 36.696C12.5632 36.1973 13.3405 35.5813 14.0445 34.848C14.7778 34.1147 15.4232 33.3373 15.9805 32.516C16.5378 31.6947 16.9925 30.9613 17.3445 30.316C17.0218 30.4333 16.6845 30.536 16.3325 30.624C15.9805 30.6827 15.5552 30.712 15.0565 30.712C13.5898 30.712 12.2552 30.448 11.0525 29.92C9.87917 29.3627 8.86717 28.6293 8.0165 27.72C7.16583 26.7813 6.50583 25.696 6.0365 24.464C5.56717 23.2027 5.3325 21.868 5.3325 20.46C5.3325 19.0813 5.58183 17.644 6.0805 16.148C6.57917 14.6227 7.2685 13.1413 8.1485 11.704C9.0285 10.2373 10.0698 8.85867 11.2725 7.568C12.4752 6.248 13.7805 5.104 15.1885 4.136C16.5965 3.13866 18.0778 2.36133 19.6325 1.804C21.2165 1.21733 22.8005 0.923999 24.3845 0.923999C25.4112 0.923999 26.4232 1.08533 27.4205 1.408C28.4178 1.73067 29.2978 2.2 30.0605 2.816C30.8525 3.432 31.4832 4.19467 31.9525 5.104C32.4512 5.984 32.7005 6.98133 32.7005 8.096C32.7005 9.152 32.4952 10.076 32.0845 10.868C31.7032 11.6307 31.2045 12.2613 30.5885 12.76C30.0018 13.2587 29.3565 13.64 28.6525 13.904C27.9778 14.1387 27.3472 14.256 26.7605 14.256C26.2325 14.256 25.7338 14.1533 25.2645 13.948C24.8245 13.7427 24.4285 13.4933 24.0765 13.2C23.7538 12.8773 23.4898 12.5253 23.2845 12.144C23.1085 11.7333 23.0205 11.3373 23.0205 10.956C23.0205 10.252 23.2258 9.78266 23.6365 9.548C24.0472 9.31333 24.5165 9.152 25.0445 9.064C25.6018 8.94667 26.1592 8.8 26.7165 8.624C27.3032 8.448 27.7725 8.052 28.1245 7.436C28.2125 7.26 28.2565 7.09867 28.2565 6.952C28.2565 6.62933 28.0952 6.336 27.7725 6.072C27.4498 5.77866 26.9805 5.632 26.3645 5.632C25.5432 5.632 24.6485 5.852 23.6805 6.292C22.7125 6.732 21.7152 7.348 20.6885 8.14C19.6912 8.90267 18.7232 9.812 17.7845 10.868C16.8458 11.924 16.0098 13.068 15.2765 14.3C14.5432 15.532 13.9565 16.8227 13.5165 18.172C13.0765 19.5213 12.8565 20.8853 12.8565 22.264C12.8565 22.5573 12.8858 22.924 12.9445 23.364C13.0032 23.804 13.1205 24.244 13.2965 24.684C13.4725 25.0947 13.7365 25.4467 14.0885 25.74C14.4405 26.0333 14.9098 26.18 15.4965 26.18C16.1418 26.18 16.7725 25.96 17.3885 25.52C18.0045 25.08 18.5765 24.5227 19.1045 23.848C19.6325 23.1733 20.1165 22.4107 20.5565 21.56C20.9965 20.7093 21.3632 19.8733 21.6565 19.052C21.9498 18.2307 22.2138 17.5413 22.4485 16.984C22.6832 16.3973 22.9032 15.9427 23.1085 15.62C23.3432 15.268 23.5925 15.0187 23.8565 14.872C24.1205 14.7253 24.4432 14.652 24.8245 14.652C25.9685 14.652 26.8045 15.0773 27.3325 15.928C27.8605 16.7787 28.1245 17.908 28.1245 19.316ZM42.43 29.128C42.1953 29.2747 41.858 29.5387 41.418 29.92C40.978 30.272 40.45 30.6387 39.834 31.02C39.2473 31.372 38.602 31.6947 37.898 31.988C37.2233 32.252 36.5193 32.384 35.786 32.384C33.85 32.384 32.3687 31.8267 31.342 30.712C30.3153 29.5973 29.802 28.16 29.802 26.4C29.802 24.9333 30.0953 23.4227 30.682 21.868C31.2687 20.284 32.0607 18.8467 33.058 17.556C34.0847 16.236 35.2727 15.1653 36.622 14.344C38.0007 13.4933 39.4527 13.068 40.978 13.068C41.7113 13.068 42.3713 13.1707 42.958 13.376C43.5447 13.552 44.0727 13.772 44.542 14.036C45.0113 14.3 45.3927 14.5787 45.686 14.872C46.0087 15.1653 46.258 15.4 46.434 15.576C46.4633 15.6347 46.5073 15.664 46.566 15.664C46.5953 15.664 46.654 15.62 46.742 15.532C46.8887 15.2973 47.0207 15.0627 47.138 14.828C47.2553 14.5933 47.3873 14.388 47.534 14.212C47.71 14.036 47.9153 13.8893 48.15 13.772C48.3847 13.6547 48.678 13.596 49.03 13.596C49.4407 13.596 49.8367 13.6693 50.218 13.816C50.5993 13.9627 50.922 14.1533 51.186 14.388C51.4793 14.5933 51.714 14.8427 51.89 15.136C52.066 15.4293 52.154 15.7227 52.154 16.016C52.154 16.3093 52.022 16.7493 51.758 17.336C51.494 17.8933 51.1567 18.5827 50.746 19.404C49.4847 21.9267 48.634 24.024 48.194 25.696C47.754 27.3387 47.6073 28.7173 47.754 29.832C47.9007 30.712 47.93 31.416 47.842 31.944C47.754 32.4427 47.3727 32.7213 46.698 32.78C45.9647 32.868 45.3193 32.7947 44.762 32.56C44.2047 32.3253 43.75 32.0173 43.398 31.636C43.046 31.2253 42.782 30.8 42.606 30.36C42.4593 29.8907 42.4007 29.48 42.43 29.128ZM35.786 27.94C35.786 28.3213 35.962 28.512 36.314 28.512C36.754 28.512 37.2673 28.292 37.854 27.852C38.4407 27.412 39.042 26.8547 39.658 26.18C40.274 25.5053 40.8753 24.772 41.462 23.98C42.078 23.188 42.6207 22.4253 43.09 21.692C43.5593 20.9587 43.9407 20.328 44.234 19.8C44.5273 19.2427 44.674 18.876 44.674 18.7C44.674 18.3187 44.5567 17.9813 44.322 17.688C44.0873 17.3947 43.7793 17.248 43.398 17.248C42.87 17.248 42.3127 17.468 41.726 17.908C41.1393 18.3187 40.5673 18.8613 40.01 19.536C39.4527 20.1813 38.91 20.9147 38.382 21.736C37.8833 22.528 37.4433 23.32 37.062 24.112C36.6807 24.904 36.3727 25.652 36.138 26.356C35.9033 27.0307 35.786 27.5587 35.786 27.94ZM56.2429 37.444C55.6856 37.444 55.1136 37.268 54.5269 36.916C53.9402 36.5933 53.4122 36.0947 52.9429 35.42C52.4736 34.7747 52.0776 33.968 51.7549 33C51.4616 32.0613 51.3149 30.976 51.3149 29.744C51.3149 28.2187 51.5642 26.532 52.0629 24.684C52.5616 22.8067 53.2069 20.9293 53.9989 19.052C54.7909 17.1453 55.6709 15.2973 56.6389 13.508C57.6069 11.6893 58.5602 10.0907 59.4989 8.712C60.4669 7.304 61.3616 6.17467 62.1829 5.324C63.0336 4.47333 63.7082 4.048 64.2069 4.048C64.5002 4.048 64.8229 4.136 65.1749 4.312C65.5269 4.488 65.8496 4.72267 66.1429 5.016C66.4362 5.30933 66.6856 5.64666 66.8909 6.028C67.0962 6.40933 67.1989 6.80533 67.1989 7.216C67.1989 7.59733 66.9642 8.25733 66.4949 9.196C66.0549 10.1347 65.4976 11.2493 64.8229 12.54C64.1482 13.8013 63.4149 15.2093 62.6229 16.764C61.8309 18.2893 61.0976 19.8587 60.4229 21.472C59.7482 23.0853 59.1762 24.684 58.7069 26.268C58.2669 27.852 58.0469 29.3333 58.0469 30.712C58.0469 31.328 58.0909 31.812 58.1789 32.164C58.2962 32.516 58.4136 32.8093 58.5309 33.044C58.6776 33.308 58.7949 33.5427 58.8829 33.748C59.0002 33.9533 59.0589 34.232 59.0589 34.584C59.0589 34.9067 58.9856 35.2293 58.8389 35.552C58.6922 35.8747 58.4869 36.1827 58.2229 36.476C57.9882 36.7693 57.6949 37.004 57.3429 37.18C57.0202 37.356 56.6536 37.444 56.2429 37.444ZM80.3652 21.164C80.3066 22.572 79.9986 23.9653 79.4412 25.344C78.8839 26.6933 78.1212 27.9253 77.1532 29.04C76.2146 30.1253 75.1146 31.0053 73.8532 31.68C72.5919 32.3547 71.2572 32.692 69.8492 32.692C68.7932 32.692 67.7959 32.5453 66.8572 32.252C65.9479 31.9293 65.1559 31.4747 64.4812 30.888C63.8066 30.272 63.2786 29.524 62.8972 28.644C62.5159 27.7347 62.3252 26.6933 62.3252 25.52C62.3252 23.9947 62.5892 22.5133 63.1172 21.076C63.6452 19.6387 64.3639 18.3773 65.2732 17.292C66.2119 16.1773 67.2972 15.2973 68.5292 14.652C69.7906 13.9773 71.1399 13.64 72.5772 13.64C73.7506 13.64 74.6452 13.772 75.2612 14.036C75.9066 14.2707 76.3612 14.5493 76.6252 14.872C76.9186 15.1653 77.0946 15.444 77.1532 15.708C77.2119 15.972 77.2852 16.1187 77.3732 16.148C78.4879 16.4707 79.2506 17.116 79.6612 18.084C80.1012 19.0227 80.3359 20.0493 80.3652 21.164ZM74.6012 17.38C74.4252 17.4387 73.9999 17.7027 73.3252 18.172C72.6799 18.6413 71.9906 19.2867 71.2572 20.108C70.5532 20.9293 69.9226 21.912 69.3652 23.056C68.8079 24.1707 68.5292 25.432 68.5292 26.84C68.5292 27.4853 68.6172 28.0573 68.7932 28.556C68.9692 29.0253 69.2919 29.26 69.7612 29.26C70.4652 29.26 71.1546 28.9373 71.8292 28.292C72.5039 27.6467 73.1052 26.8693 73.6332 25.96C74.1612 25.0213 74.5866 24.0533 74.9092 23.056C75.2319 22.0293 75.3932 21.1347 75.3932 20.372C75.3932 19.932 75.3492 19.5947 75.2612 19.36C75.2026 19.1253 75.1292 18.92 75.0412 18.744C74.9532 18.5387 74.8652 18.348 74.7772 18.172C74.6892 17.9667 74.6306 17.7027 74.6012 17.38ZM103.327 16.236C103.327 16.3533 103.312 16.4707 103.283 16.588H103.327C102.945 18.6707 102.432 20.8853 101.787 23.232C101.141 25.5787 100.32 27.896 99.3227 30.184C98.3547 32.472 97.2254 34.6573 95.9347 36.74C94.644 38.8227 93.1774 40.656 91.5347 42.24C89.9214 43.824 88.1174 45.0853 86.1227 46.024C84.128 46.9627 81.9427 47.432 79.5667 47.432C78.3054 47.432 77.132 47.2267 76.0467 46.816C74.932 46.4347 73.964 45.9213 73.1427 45.276C72.3214 44.66 71.676 43.9707 71.2067 43.208C70.7374 42.4453 70.5027 41.6973 70.5027 40.964C70.5027 40.172 70.7374 39.4973 71.2067 38.94C71.6467 38.3827 72.204 38.104 72.8787 38.104C73.4067 38.104 73.8467 38.2213 74.1987 38.456C74.5214 38.6907 74.8 38.984 75.0347 39.336C75.24 39.688 75.4454 40.0693 75.6507 40.48C75.8267 40.92 76.0467 41.316 76.3107 41.668C76.5747 42.02 76.912 42.3133 77.3227 42.548C77.704 42.7827 78.2174 42.9 78.8627 42.9C79.948 42.9 81.0334 42.6067 82.1187 42.02C83.204 41.4627 84.2454 40.744 85.2427 39.864C86.2694 39.0133 87.2227 38.06 88.1027 37.004C88.9827 35.948 89.7454 34.936 90.3907 33.968C91.036 33.0293 91.5494 32.1933 91.9307 31.46C92.312 30.6973 92.5027 30.184 92.5027 29.92C92.2387 30.1253 91.9014 30.404 91.4907 30.756C91.1094 31.108 90.6694 31.4453 90.1707 31.768C89.672 32.0907 89.1147 32.384 88.4987 32.648C87.8827 32.8827 87.2374 33 86.5627 33C85.6827 33 84.876 32.8093 84.1427 32.428C83.4387 32.0173 82.8227 31.4893 82.2947 30.844C81.796 30.1987 81.4147 29.4653 81.1507 28.644C80.8867 27.8227 80.7547 27.0013 80.7547 26.18C80.7547 24.772 81.092 23.2907 81.7667 21.736C82.4707 20.152 83.38 18.7 84.4947 17.38C85.6094 16.06 86.856 14.9747 88.2347 14.124C89.6427 13.244 91.036 12.804 92.4147 12.804C94.1747 12.804 95.6414 13.4933 96.8147 14.872C97.2547 15.4 97.504 15.664 97.5627 15.664C97.5334 15.664 97.5774 15.6053 97.6947 15.488C97.8414 15.2533 97.9734 15.0187 98.0907 14.784C98.208 14.5493 98.34 14.344 98.4867 14.168C98.6627 13.992 98.868 13.8453 99.1027 13.728C99.3374 13.6107 99.6307 13.552 99.9827 13.552C100.364 13.552 100.745 13.6253 101.127 13.772C101.537 13.9187 101.904 14.124 102.227 14.388C102.549 14.6227 102.813 14.9013 103.019 15.224C103.224 15.5467 103.327 15.884 103.327 16.236ZM87.3107 28.468C87.6627 28.468 88.1027 28.248 88.6307 27.808C89.188 27.3387 89.7747 26.752 90.3907 26.048C91.036 25.344 91.6667 24.5813 92.2827 23.76C92.928 22.9387 93.5 22.176 93.9987 21.472C94.5267 20.7387 94.952 20.1227 95.2747 19.624C95.5974 19.1253 95.7587 18.832 95.7587 18.744C95.7587 18.48 95.6267 18.1573 95.3627 17.776C95.0987 17.3947 94.7907 17.204 94.4387 17.204C93.94 17.204 93.412 17.424 92.8547 17.864C92.2974 18.304 91.7254 18.8613 91.1387 19.536C90.5814 20.2107 90.0387 20.9733 89.5107 21.824C88.9827 22.6453 88.5134 23.452 88.1027 24.244C87.692 25.036 87.3547 25.7693 87.0907 26.444C86.856 27.0893 86.7387 27.588 86.7387 27.94C86.7387 28.292 86.9294 28.468 87.3107 28.468ZM112.947 17.38C113.915 16.5293 114.869 15.8107 115.807 15.224C116.775 14.608 117.758 14.3 118.755 14.3C119.254 14.3 119.782 14.4173 120.339 14.652C120.926 14.8573 121.454 15.1653 121.923 15.576C122.422 15.9867 122.833 16.5 123.155 17.116C123.478 17.732 123.639 18.436 123.639 19.228C123.639 20.1667 123.507 21.1053 123.243 22.044C122.979 22.9827 122.583 23.8333 122.055 24.596C121.527 25.3293 120.882 25.9307 120.119 26.4C119.386 26.84 118.535 27.06 117.567 27.06C117.039 27.06 116.57 26.972 116.159 26.796C115.778 26.5907 115.441 26.3413 115.147 26.048C114.883 25.7547 114.678 25.432 114.531 25.08C114.414 24.728 114.355 24.3907 114.355 24.068C114.355 23.716 114.429 23.3933 114.575 23.1C114.722 22.7773 114.957 22.5133 115.279 22.308C115.367 22.2787 115.587 22.176 115.939 22C116.321 21.7947 116.717 21.56 117.127 21.296C117.538 21.0027 117.905 20.68 118.227 20.328C118.55 19.976 118.711 19.6093 118.711 19.228C118.711 19.0227 118.579 18.92 118.315 18.92C117.817 18.92 117.245 19.1253 116.599 19.536C115.983 19.9173 115.309 20.4453 114.575 21.12C113.871 21.7947 113.153 22.572 112.419 23.452C111.715 24.3027 111.011 25.212 110.307 26.18C109.633 27.1187 109.002 28.072 108.415 29.04C107.858 30.008 107.374 30.9173 106.963 31.768C106.641 32.4427 106.113 32.78 105.379 32.78C104.587 32.78 103.854 32.516 103.179 31.988C102.505 31.46 102.167 30.8 102.167 30.008C102.167 29.4213 102.299 28.6147 102.563 27.588C102.857 26.5613 103.223 25.4467 103.663 24.244C104.103 23.012 104.602 21.78 105.159 20.548C105.746 19.2867 106.333 18.1427 106.919 17.116C107.506 16.0893 108.093 15.2533 108.679 14.608C109.266 13.9627 109.779 13.64 110.219 13.64C110.395 13.64 110.645 13.684 110.967 13.772C111.29 13.86 111.598 14.0067 111.891 14.212C112.214 14.4173 112.493 14.6813 112.727 15.004C112.962 15.3267 113.079 15.7227 113.079 16.192C113.079 16.2507 113.065 16.3533 113.035 16.5C113.035 16.6173 113.021 16.7493 112.991 16.896C112.962 17.0427 112.947 17.204 112.947 17.38ZM135.608 29.964C135.49 30.0227 135.256 30.2133 134.904 30.536C134.552 30.8587 134.112 31.2107 133.584 31.592C133.056 31.944 132.454 32.2667 131.78 32.56C131.134 32.8533 130.445 33 129.712 33C128.744 33 127.893 32.824 127.16 32.472C126.426 32.0907 125.81 31.6067 125.312 31.02C124.842 30.404 124.49 29.7 124.256 28.908C124.021 28.116 123.904 27.28 123.904 26.4C123.904 25.432 124.065 24.42 124.388 23.364C124.71 22.308 125.15 21.2813 125.708 20.284C126.265 19.2573 126.91 18.304 127.644 17.424C128.406 16.5147 129.213 15.7227 130.064 15.048C130.944 14.3733 131.853 13.8453 132.792 13.464C133.73 13.0533 134.669 12.848 135.608 12.848C136.341 12.848 136.972 12.9653 137.5 13.2C138.057 13.4053 138.526 13.6547 138.908 13.948C139.318 14.2413 139.641 14.5493 139.876 14.872C140.14 15.1653 140.36 15.4 140.536 15.576C140.594 15.6347 140.638 15.664 140.668 15.664C140.697 15.664 140.756 15.62 140.844 15.532C140.99 15.2973 141.122 15.0627 141.24 14.828C141.357 14.5933 141.489 14.388 141.636 14.212C141.812 14.036 142.017 13.8893 142.252 13.772C142.486 13.6547 142.78 13.596 143.132 13.596C143.542 13.596 143.938 13.6693 144.32 13.816C144.701 13.9627 145.024 14.1533 145.288 14.388C145.581 14.5933 145.816 14.8427 145.992 15.136C146.168 15.4293 146.256 15.7227 146.256 16.016C146.256 16.3973 146.05 17.0133 145.64 17.864C145.229 18.6853 144.73 19.712 144.144 20.944C143.586 22.1467 143.014 23.54 142.428 25.124C141.87 26.708 141.43 28.424 141.108 30.272C141.049 30.712 140.99 31.1373 140.932 31.548C140.873 31.9587 140.785 32.34 140.668 32.692C140.58 33.0147 140.433 33.264 140.228 33.44C140.052 33.6453 139.802 33.748 139.48 33.748C138.512 33.748 137.749 33.5867 137.192 33.264C136.664 32.9413 136.282 32.5747 136.048 32.164C135.813 31.724 135.666 31.2987 135.608 30.888C135.578 30.4773 135.578 30.1693 135.608 29.964ZM129.888 27.94C129.888 28.3213 130.064 28.512 130.416 28.512C130.856 28.512 131.369 28.292 131.956 27.852C132.542 27.412 133.144 26.8547 133.76 26.18C134.376 25.5053 134.977 24.772 135.564 23.98C136.18 23.188 136.722 22.4253 137.192 21.692C137.661 20.9587 138.042 20.328 138.336 19.8C138.629 19.2427 138.776 18.876 138.776 18.7C138.776 18.3187 138.658 17.9813 138.424 17.688C138.189 17.3947 137.881 17.248 137.5 17.248C136.972 17.248 136.414 17.468 135.828 17.908C135.241 18.3187 134.669 18.8613 134.112 19.536C133.554 20.1813 133.012 20.9147 132.484 21.736C131.985 22.528 131.545 23.32 131.164 24.112C130.782 24.904 130.474 25.652 130.24 26.356C130.005 27.0307 129.888 27.5587 129.888 27.94ZM154.359 18.7C154.417 18.6707 154.755 18.4213 155.371 17.952C155.987 17.4533 156.72 16.9107 157.571 16.324C158.421 15.7373 159.301 15.2093 160.211 14.74C161.149 14.2413 161.941 13.992 162.587 13.992C163.115 13.992 163.643 14.0947 164.171 14.3C164.699 14.5053 165.168 14.784 165.579 15.136C166.019 15.488 166.356 15.9133 166.591 16.412C166.855 16.8813 166.987 17.4093 166.987 17.996C166.987 18.4067 166.928 18.8173 166.811 19.228C166.723 19.6093 166.635 19.9613 166.547 20.284C166.576 20.284 166.752 20.1227 167.075 19.8C167.397 19.448 167.823 19.0227 168.351 18.524C168.908 17.996 169.539 17.4387 170.243 16.852C170.947 16.2653 171.68 15.7227 172.443 15.224C173.205 14.7253 173.983 14.3147 174.775 13.992C175.567 13.64 176.329 13.464 177.063 13.464C177.591 13.464 178.104 13.5667 178.603 13.772C179.131 13.948 179.6 14.212 180.011 14.564C180.421 14.8867 180.744 15.2827 180.979 15.752C181.243 16.2213 181.375 16.72 181.375 17.248C181.375 17.688 181.213 18.2893 180.891 19.052C180.597 19.8147 180.216 20.68 179.747 21.648C179.277 22.5867 178.764 23.6133 178.207 24.728C177.649 25.8133 177.136 26.9133 176.667 28.028C176.197 29.1133 175.801 30.184 175.479 31.24C175.185 32.2667 175.039 33.2053 175.039 34.056C175.039 34.7013 174.892 35.2 174.599 35.552C174.335 35.9333 173.821 36.124 173.059 36.124C172.531 36.124 172.017 36.0067 171.519 35.772C171.02 35.5373 170.58 35.2147 170.199 34.804C169.817 34.3933 169.509 33.9093 169.275 33.352C169.04 32.7947 168.923 32.1787 168.923 31.504C168.923 30.7413 169.099 29.8907 169.451 28.952C169.803 27.984 170.213 27.016 170.683 26.048C171.181 25.08 171.695 24.156 172.223 23.276C172.751 22.396 173.205 21.648 173.587 21.032C173.909 20.4747 174.115 20.0933 174.203 19.888C174.32 19.6827 174.379 19.5213 174.379 19.404C174.379 19.2867 174.305 19.228 174.159 19.228C173.865 19.228 173.337 19.4627 172.575 19.932C171.841 20.4013 170.976 21.0907 169.979 22C168.981 22.9093 167.911 24.024 166.767 25.344C165.623 26.664 164.508 28.16 163.423 29.832C163.041 30.448 162.704 30.932 162.411 31.284C162.117 31.6067 161.853 31.856 161.619 32.032C161.413 32.1787 161.223 32.2813 161.047 32.34C160.871 32.3693 160.695 32.384 160.519 32.384C160.137 32.384 159.727 32.296 159.287 32.12C158.876 31.944 158.495 31.6947 158.143 31.372C157.791 31.0493 157.497 30.6533 157.263 30.184C157.057 29.6853 156.955 29.128 156.955 28.512C156.955 27.8667 157.057 27.2213 157.263 26.576C157.468 25.9013 157.717 25.2413 158.011 24.596C158.333 23.9507 158.671 23.3493 159.023 22.792C159.404 22.2053 159.756 21.6773 160.079 21.208C160.548 20.5333 160.871 20.0787 161.047 19.844C161.223 19.58 161.311 19.404 161.311 19.316C161.311 19.1693 161.223 19.096 161.047 19.096C160.841 19.096 160.519 19.228 160.079 19.492C159.668 19.7267 159.228 20.02 158.759 20.372C158.289 20.6947 157.849 21.032 157.439 21.384C157.028 21.7067 156.735 21.956 156.559 22.132C154.945 23.628 153.655 25.036 152.687 26.356C151.748 27.676 150.971 28.82 150.355 29.788C149.739 30.756 149.196 31.5187 148.727 32.076C148.257 32.6333 147.7 32.912 147.055 32.912C146.703 32.912 146.336 32.8387 145.955 32.692C145.603 32.5453 145.28 32.3547 144.987 32.12C144.693 31.856 144.444 31.548 144.239 31.196C144.063 30.844 143.975 30.4627 143.975 30.052C143.975 29.2893 144.136 28.3507 144.459 27.236C144.781 26.1213 145.207 24.948 145.735 23.716C146.263 22.484 146.849 21.252 147.495 20.02C148.169 18.788 148.829 17.688 149.475 16.72C150.149 15.7227 150.795 14.916 151.411 14.3C152.056 13.684 152.599 13.376 153.039 13.376C153.303 13.376 153.596 13.4493 153.919 13.596C154.271 13.7427 154.593 13.9333 154.887 14.168C155.18 14.4027 155.429 14.6667 155.635 14.96C155.84 15.2533 155.943 15.5467 155.943 15.84C155.943 15.9867 155.913 16.1187 155.855 16.236C155.825 16.324 155.752 16.456 155.635 16.632C155.547 16.808 155.4 17.0573 155.195 17.38C154.989 17.7027 154.711 18.1427 154.359 18.7Z" fill="black"/>
</svg>
